<svg xmlns="http://www.w3.org/2000/svg" xml:space="preserve" width="2000" height="559" data-id="lg_6ilO3OpXi4rsCspzk5" data-version="1" viewBox="0 0 2000 559"><g data-padding="20"><g transform="translate(10 19.276)scale(.93103)"><rect width="290.265" height="182.857" x="772.321" y="-91.875" fill="none" rx="0" ry="0" transform="translate(145.45 468.18)"/><path d="M956.853 403.993h-17.4v24.53h17.4q14.35 0 14.35-12.35 0-6.53-3.61-9.36-3.61-2.82-10.74-2.82m0 28.53h-17.4v19.14q0 .87-.7 1.44-.69.56-1.65.56t-1.65-.56q-.7-.57-.7-1.44v-47.67h-5.22q-.87 0-1.43-.57-.57-.56-.57-1.43t.57-1.48q.56-.61 1.43-.61h27.32q19.05 0 19.05 16.27 0 11.74-10.35 15.13l11.22 19.41q.18.34.18.78 0 1.22-1 1.74t-1.79.52q-.78 0-1.39-.96l-11.92-20.44q-2.26.17-4 .17m63.67-32.63h7.57q2.26 0 2.26 2.09v34.27q0 8.01-6.04 12.71-6.05 4.69-14.92 4.69-8.88 0-14.62-4.87t-5.74-12.53v-32.27h-5.13q-.87 0-1.44-.57-.56-.56-.56-1.43t.56-1.48q.57-.61 1.44-.61h7.57q.87 0 1.56.61.7.61.7 1.48v34.27q0 5.92 4.43 9.62 4.44 3.69 11.49 3.69t11.53-3.69q4.48-3.7 4.48-9.62v-32.27h-5.14q-.87 0-1.43-.57-.57-.56-.57-1.43t.57-1.48q.56-.61 1.43-.61m20.89.01h24.19q9.13 0 13.53 3.26 4.39 3.26 4.39 10.7t-6 10.57q9.05 3.22 9.05 13.4 0 14.96-19.32 14.96h-18.79q-1.04 0-1.74-.56-.7-.57-.7-1.44v-46.8h-4.61q-.87 0-1.43-.57-.57-.56-.57-1.43t.57-1.48q.56-.61 1.43-.61m27.23 27.05h-17.92v21.75h16.53q7.4 0 10.96-2.61 3.57-2.61 3.57-8.26 0-10.88-13.14-10.88m-3.04-22.96h-14.88v18.88h16.88q5.13 0 8.18-2.44 3.04-2.44 3.04-7.18t-3.22-7q-3.21-2.26-10-2.26m47.85 25.65 20.27-29.75q.7-.96 1.48-.96t1.57.44q1.04.6 1.04 1.52 0 .91-.26 1.35l-21.75 31.23v18.18q0 .87-.7 1.44-.69.56-1.65.56t-1.65-.56q-.7-.57-.7-1.44v-18.01l-21.84-31.49q-.26-.44-.26-.78 0-1.4.96-1.92t1.78-.52q.83 0 1.44 1.04Zm28.88-40.98q-.08-.95.57-1.47.65-.53 1.65-.53t1.65.53q.66.52.57 1.47l-.7 7.14q-.17 1.65-1.52 1.65t-1.52-1.65Zm16.27 52.13v6q5.83 2.78 14.79 2.78t13.49-2.82q4.52-2.83 4.52-8.01 0-5.17-4.26-7.7-4.26-2.52-13.57-4.3-9.31-1.79-13.97-4.74-4.65-2.96-4.65-9.31 0-13.66 20.27-13.66 10.79 0 17.83 3.91 1.31.79 1.31 1.83v7.13q0 .87-.7 1.44-.69.56-1.65.56t-1.65-.56q-.7-.57-.7-1.44v-6q-6-2.78-14.22-2.78t-12.01 2.35q-3.78 2.34-3.78 7.22 0 4.61 4.87 6.87 3.3 1.65 8.92 2.83 5.61 1.17 7.96 1.78t5.48 1.87 4.87 2.83q1.74 1.56 3.04 4.13 1.31 2.57 1.31 5.87 0 6.79-5.7 10.79t-16.31 4q-4.87 0-10.53-1.08-5.65-1.09-8.52-2.92-1.14-.69-1.14-1.74v-7.13q0-.87.7-1.44.7-.56 1.65-.56.96 0 1.66.56.69.57.69 1.44m-181.72 92.46h3.22q.87 0 1.44.61.56.61.56 1.48t-.56 1.43q-.57.57-1.44.57h-3.22q-3.83 0-5.26-1.65-1.44-1.66-1.44-3.74v-19.14h-31.93v23.4q0 .87-.69 1.43-.7.57-1.66.57-.95 0-1.65-.57-.69-.56-.69-1.43v-47.68h-5.05q-.87 0-1.44-.56-.56-.57-.56-1.44t.56-1.48q.57-.61 1.44-.61h7.48q.87 0 1.57.61.69.61.69 1.48v22.19h31.93v-20.19h-5.13q-.87 0-1.44-.56-.56-.57-.56-1.44t.56-1.48q.57-.61 1.44-.61h7.57q.87 0 1.56.61.7.61.7 1.48v45.42q0 1.3 2 1.3m18.23-2.79q-7.35-7.75-7.35-19.58t7.35-19.57q7.35-7.75 18.92-7.75t18.92 7.75q7.35 7.74 7.35 19.62 0 11.87-7.35 19.57t-18.92 7.7-18.92-7.74m3.35-36.24q-6.01 6.57-6.01 16.66t6.01 16.66q6 6.57 15.57 6.57t15.57-6.57q6.01-6.57 6.01-16.66t-6.01-16.66q-6-6.57-15.57-6.57t-15.57 6.57m85.34-9.78h7.57q2.27 0 2.27 2.09v34.28q0 8-6.05 12.7t-14.92 4.7q-8.88 0-14.62-4.87t-5.74-12.53v-32.28h-5.13q-.87 0-1.44-.56-.56-.57-.56-1.44t.56-1.48q.57-.61 1.44-.61h7.57q.87 0 1.56.61.7.61.7 1.48v34.28q0 5.92 4.44 9.61 4.43 3.7 11.48 3.7t11.53-3.7q4.48-3.69 4.48-9.61v-32.28h-5.14q-.87 0-1.43-.56-.57-.57-.57-1.44t.57-1.48q.56-.61 1.43-.61m25.58 40.88v6.01q5.83 2.78 14.79 2.78t13.49-2.83q4.52-2.82 4.52-8t-4.26-7.7-13.57-4.31q-9.31-1.78-13.97-4.74-4.65-2.96-4.65-9.31 0-13.66 20.27-13.66 10.79 0 17.83 3.92 1.31.78 1.31 1.83v7.13q0 .87-.7 1.44-.69.56-1.65.56t-1.65-.56q-.7-.57-.7-1.44v-6q-6-2.79-14.22-2.79t-12.01 2.35q-3.78 2.35-3.78 7.22 0 4.61 4.87 6.88 3.3 1.65 8.92 2.82 5.61 1.18 7.96 1.79t5.48 1.87 4.87 2.83q1.74 1.56 3.04 4.13 1.31 2.56 1.31 5.87 0 6.79-5.7 10.79t-16.31 4q-4.87 0-10.53-1.09-5.65-1.08-8.52-2.91-1.14-.7-1.14-1.74v-7.14q0-.87.7-1.43.7-.57 1.65-.57.96 0 1.66.57.69.56.69 1.43m45.16-40.89h40.8q2.26 0 2.26 2.09v7.14q0 .87-.7 1.43-.69.57-1.65.57t-1.65-.57q-.7-.56-.7-1.43v-5.14h-28.53v20.19h24.53v-3.22q0-.87.65-1.44.66-.56 1.61-.56.96 0 1.61.56.65.57.65 1.44v10.61q0 .87-.65 1.44-.65.56-1.61.56-.95 0-1.61-.56-.65-.57-.65-1.44v-3.3h-24.53v20.44h30.88q1.05 0 1.7.57.65.56.65 1.43t-.7 1.48q-.69.61-1.65.61h-33.41q-2.17 0-2.17-1.91v-46.9h-5.13q-.87 0-1.44-.56-.57-.57-.57-1.44t.57-1.48 1.44-.61"/><path fill="none" stroke="#000" stroke-width="1.15" d="M1063.333 123.206a119.877 119.877 0 1 0 0 239.754 119.877 119.877 0 1 0 0-239.754Z"/><rect width="184.144" height="344.65" x="825.381" y="-172.772" fill="none" rx="0" ry="0" transform="translate(145.46 172.61)"/><path d="M1020.063 272.853q-13.73 0-13.73-14.95 0-10.37 8.85-26.53-4.58.61-8.7-3.05-4.11-3.66-4.11-8.54-7.93 14.94-23.79 28.06-1.22 1.22-3.05 1.22-1.22 0-1.22-.92 0-1.22 1.83-2.44 13.72-12.5 23.48-30.8l-.61-3.05q-.3-1.53-.46-2.9-.15-1.37-.15-2.59 0-7.32 3.97-11.59 3.66-3.97 8.23-3.97 5.8 0 5.8 6.1 0 7.63-10.07 19.52v.61q0 5.19 6.1 5.19 2.44 0 5.8-1.22 3.66-.92 5.18-.92 5.49 0 5.49 5.8 0 2.13-1.52 4.57-2.14 3.05-5.49 10.98-3.97 8.54-4.58 12.51-.3 1.22-.46 2.44-.15 1.22-.15 2.44 0 7.93 7.32 7.93 9.15 0 23.18-8.24 6.1-3.35 10.98-7.01t8.85-7.63q1.83-1.83 3.05-1.83.91 0 .91 1.22 0 1.53-1.83 3.36-21.35 18.3-35.99 23.48-7.62 2.75-13.11 2.75"/><path d="M1068.553 267.673q-4.27 0-4.27-7.01 0-3.05.92-6.1 2.44-8.54 7.32-20.44 4.88-11.89 11.59-27.45 8.54-19.52 15.7-33.39 7.17-13.88 12.97-22.42 9.45-14.03 20.74-14.03 8.23 0 8.23 9.76 0 4.27-1.83 9.45-8.54 27.15-50.93 63.44-4.27 7.93-7.93 17.08t-6.1 19.52l3.66-3.66q2.44-2.44 5.64-5.79 3.2-3.36 8.08-7.93 12.2-10.37 19.52-10.37 4.88 0 5.8 7.93l1.52 14.94q1.53 7.93 6.1 7.93 5.49 0 13.42-5.79 3.05-2.44 5.8-4.73 2.74-2.29 4.88-4.73 1.52-1.83 3.05-1.83.91 0 .91 1.22 0 .92-.91 2.44-20.44 21.05-33.25 21.05-5.79 0-8.23-8.85l-3.66-13.72q-2.14-4.88-5.8-4.88-3.05 0-7.93 3.35-5.79 4.58-12.81 13.73-1.52 2.13-3.2 4.42t-3.2 4.42q-3.36 2.44-5.8 2.44m22.88-54.29q6.1-6.1 12.04-12.81 5.95-6.71 11.75-14.33 13.42-18.3 18.3-30.81 2.44-6.4 2.44-9.15 0-4.88-3.36-4.88-5.18 0-11.89 11.29-8.24 14.33-15.56 29.58t-13.72 31.11"/></g><path fill="transparent" stroke="transparent" d="M854.6 0h290v559h-290z"/></g></svg>