<svg xmlns="http://www.w3.org/2000/svg" version="1.1" xmlns:xlink="http://www.w3.org/1999/xlink" xmlns:svgjs="http://svgjs.dev/svgjs" width="2000" height="393" viewBox="0 0 2000 393"><g transform="matrix(1,0,0,1,-1.2115776799039395,-0.47753721633864643)"><svg viewBox="0 0 396 78" data-background-color="#ffffff" preserveAspectRatio="xMidYMid meet" height="393" width="2000" xmlns="http://www.w3.org/2000/svg" xmlns:xlink="http://www.w3.org/1999/xlink"><g id="tight-bounds" transform="matrix(1,0,0,1,0.2401076193789322,0.09477837881530604)"><svg viewBox="0 0 395.52 77.81044324236942" height="77.81044324236942" width="395.52"><g><svg viewBox="0 0 395.52 77.81044324236942" height="77.81044324236942" width="395.52"><g><svg viewBox="0 0 395.52 77.81044324236942" height="77.81044324236942" width="395.52"><g id="textblocktransform"><svg viewBox="0 0 395.52 77.81044324236942" height="77.81044324236942" width="395.52" id="textblock"><g><svg viewBox="0 0 395.52 49.329219935955464" height="49.329219935955464" width="395.52"><g transform="matrix(1,0,0,1,0,0)"><svg width="395.52" viewBox="1.3785538456439097 -28.316695493105694 438.2209739331847 54.65489387596487" height="49.329219935955464" data-palette-color="#000000"><path d="M24.59-12.45v0l-10.755 1.179 1.562 14.255 10.755-1.179c2.041-0.224 3.352-0.867 3.933-1.93 0.581-1.063 0.772-2.499 0.575-4.308v0l-0.378-3.449c-0.166-1.518-0.719-2.704-1.658-3.561-0.946-0.862-2.291-1.198-4.034-1.007zM20.287-1.596l-0.692-6.313 3.698-0.405c0.855-0.094 1.456 0.065 1.803 0.477 0.347 0.411 0.556 0.945 0.628 1.601v0l0.184 1.68c0.072 0.656-0.017 1.222-0.267 1.699-0.25 0.477-0.802 0.762-1.656 0.856v0zM15.444 3.421l1.254 11.442-0.487 0.053-2.918-26.631 11.243-1.232c1.909-0.209 3.382 0.169 4.42 1.136 1.039 0.973 1.646 2.264 1.823 3.874v0l0.372 3.4c0.166 1.511 0.103 2.775-0.188 3.793-0.285 1.01-1.001 1.763-2.147 2.257v0l0.547-0.06c2.001-0.219 3.545 0.068 4.631 0.861 1.087 0.8 1.724 2.054 1.912 3.764v0l0.723 6.601-0.497 0.054-0.723-6.6c-0.177-1.617-0.754-2.778-1.73-3.483-0.977-0.711-2.399-0.964-4.268-0.759v0zM13.149 19.748l7.595-0.832c0.623-0.068 1.058-0.257 1.306-0.566 0.248-0.309 0.337-0.778 0.268-1.407v0l-1.058-9.662 6.908-0.757c0.689-0.076 1.192 0.044 1.508 0.357 0.323 0.313 0.524 0.831 0.603 1.554v0l0.827 7.545c0.069 0.63 0.258 1.068 0.566 1.316 0.309 0.248 0.775 0.338 1.398 0.269v0l7.644-0.837c0.63-0.069 1.068-0.258 1.316-0.567 0.248-0.309 0.337-0.778 0.269-1.408v0l-1.146-10.457c-0.227-2.068-0.958-3.667-2.196-4.799-1.243-1.125-2.764-1.689-4.562-1.694v0c0.974-0.536 1.613-1.314 1.918-2.332 0.305-1.013 0.381-2.211 0.229-3.597v0l-0.248-2.266c-0.266-2.432-1.183-4.337-2.749-5.715-1.559-1.372-4.18-1.856-7.865-1.452v0l-16.421 1.8c-0.63 0.069-1.068 0.258-1.317 0.566-0.248 0.309-0.338 0.775-0.269 1.398v0l3.502 31.959c0.069 0.63 0.258 1.068 0.567 1.316 0.309 0.248 0.778 0.337 1.407 0.268zM22.32 18.794v0l-5.828 6.03c-0.111 0.146-0.304 0.285-0.578 0.416-0.268 0.123-0.565 0.203-0.89 0.238v0l-7.594 0.832c-0.795 0.087-1.391-0.029-1.789-0.347-0.404-0.325-0.65-0.881-0.736-1.67v0l-3.502-31.959c-0.047-0.431-0.027-0.798 0.061-1.103 0.08-0.311 0.225-0.578 0.435-0.802v0l5.774-6.065c0.151-0.151 0.361-0.284 0.63-0.401 0.27-0.11 0.57-0.183 0.901-0.219v0l16.422-1.8c3.91-0.428 6.68 0.09 8.309 1.555 1.623 1.472 2.575 3.49 2.856 6.054v0l0.248 2.267c0.134 1.219 0.101 2.296-0.098 3.23-0.192 0.94-0.589 1.724-1.191 2.354v0l-0.05 0.005c1.598 0.261 2.934 0.98 4.009 2.156 1.075 1.183 1.719 2.742 1.931 4.678v0l1.146 10.457c0.047 0.431 0.031 0.801-0.049 1.112-0.081 0.304-0.226 0.568-0.437 0.792v0l-5.828 6.031c-0.118 0.147-0.311 0.286-0.578 0.415-0.268 0.123-0.568 0.203-0.899 0.24v0l-7.644 0.837c-0.789 0.086-1.385-0.029-1.789-0.347-0.398-0.325-0.64-0.882-0.726-1.671v0l-0.827-7.545c-0.057-0.524-0.201-0.917-0.431-1.18-0.229-0.257-0.606-0.356-1.129-0.298v0l-0.05 0.005 0.416 3.797c0.047 0.431 0.031 0.801-0.049 1.112-0.087 0.305-0.236 0.569-0.446 0.794zM61.723 21.547v0c-3.195 0.277-5.851 0.167-7.968-0.332-2.118-0.499-3.803-1.256-5.056-2.271-1.253-1.022-2.165-2.238-2.736-3.647-0.571-1.416-0.924-2.898-1.058-4.445v0l-1.996-22.983c-0.037-0.432-0.009-0.799 0.085-1.102 0.087-0.309 0.238-0.573 0.453-0.792v0l5.908-5.933c0.154-0.147 0.367-0.276 0.639-0.387 0.272-0.104 0.574-0.17 0.907-0.199v0l7.76-0.674c0.79-0.069 1.38 0.061 1.771 0.388 0.397 0.334 0.63 0.896 0.698 1.686v0l1.958 22.545c0.025 0.292 0.099 0.56 0.221 0.804 0.121 0.237 0.35 0.408 0.687 0.512v0l-1.611-18.54c-0.037-0.432-0.019-0.798 0.055-1.099 0.074-0.308 0.203-0.553 0.388-0.736v0l0.046-0.054 5.958-5.938c0.154-0.147 0.358-0.275 0.609-0.384 0.259-0.103 0.571-0.17 0.936-0.202v0l7.512-0.652c0.79-0.069 1.384 0.06 1.78 0.387 0.39 0.334 0.62 0.896 0.689 1.687v0l2.125 24.468c0.132 1.514 0.041 2.934-0.273 4.259-0.32 1.319-1.002 2.489-2.044 3.51v0l-5.962 5.898c-1.063 1.089-2.594 1.995-4.592 2.718-1.992 0.722-4.621 1.224-7.889 1.508zM81.995 3.696v0l-2.126-24.468c-0.054-0.624-0.236-1.064-0.546-1.317-0.303-0.255-0.767-0.355-1.391-0.301v0l-7.512 0.652c-0.631 0.055-1.074 0.234-1.328 0.537-0.255 0.303-0.355 0.767-0.301 1.391v0l1.958 22.546c0.057 0.658-0.141 1.23-0.593 1.717-0.459 0.488-1.563 0.808-3.31 0.96v0c-1.714 0.149-2.835 0.022-3.365-0.38-0.537-0.402-0.834-0.931-0.891-1.589v0l-1.958-22.545c-0.054-0.624-0.233-1.064-0.536-1.318-0.303-0.255-0.767-0.355-1.391-0.301v0l-7.761 0.674c-0.624 0.054-1.067 0.233-1.329 0.537-0.255 0.303-0.355 0.767-0.3 1.391v0l2.125 24.468c0.132 1.514 0.474 2.873 1.026 4.076 0.552 1.197 1.434 2.181 2.646 2.953 1.212 0.778 2.829 1.327 4.85 1.646 2.022 0.32 4.564 0.346 7.626 0.081v0c3.068-0.267 5.571-0.731 7.507-1.395 1.93-0.663 3.425-1.482 4.485-2.458 1.067-0.969 1.769-2.091 2.106-3.364 0.337-1.281 0.44-2.678 0.309-4.193zM56.776 4.692l-1.79-20.612 0.498-0.044 1.79 20.613c0.16 1.846 0.941 3.281 2.342 4.303 1.4 1.023 3.927 1.375 7.58 1.058v0c3.66-0.318 6.101-1.102 7.323-2.352 1.216-1.25 1.744-2.798 1.584-4.645v0l-1.79-20.612 0.498-0.043 1.791 20.612c0.172 1.979-0.383 3.647-1.664 5.003-1.274 1.355-3.841 2.201-7.699 2.536v0c-3.852 0.335-6.516-0.056-7.992-1.173-1.475-1.117-2.299-2.664-2.471-4.644zM108.649 17.293l-19.011 1.218c-0.798 0.051-1.389-0.091-1.771-0.428-0.389-0.342-0.609-0.91-0.66-1.701v0l-2.054-32.085c-0.028-0.432 0.009-0.799 0.11-1.099 0.094-0.307 0.251-0.567 0.471-0.782v0l6.042-5.798c0.158-0.144 0.374-0.268 0.647-0.372 0.274-0.098 0.578-0.157 0.911-0.178v0l15.787-1.011c3.433-0.22 6.004 0.287 7.713 1.52 1.702 1.234 2.64 3.205 2.814 5.912v0l0.152 2.376c0.074 1.151-0.019 2.152-0.279 3.003-0.267 0.845-0.697 1.534-1.29 2.067v0l-0.144 0.11c1.808 0.278 3.2 1.041 4.175 2.287 0.975 1.247 1.537 3.028 1.685 5.344v0l0.291 4.55c0.095 1.49-0.035 2.785-0.392 3.883-0.364 1.099-0.952 2.038-1.764 2.819v0l-6.041 5.808c-0.781 0.745-1.789 1.33-3.024 1.757-1.229 0.426-2.685 0.693-4.368 0.8zM95.648 12.214l19.011-1.218c3.267-0.209 5.643-1.023 7.129-2.44 1.485-1.424 2.139-3.524 1.961-6.298v0l-0.291-4.551c-0.154-2.408-0.784-4.209-1.889-5.4-1.105-1.192-2.722-1.816-4.85-1.874v0c0.964-0.496 1.657-1.195 2.081-2.097 0.423-0.909 0.59-2.055 0.501-3.44v0l-0.152-2.375c-0.165-2.575-1.062-4.431-2.692-5.569-1.629-1.138-4.064-1.604-7.304-1.396v0l-15.787 1.011c-0.632 0.04-1.079 0.209-1.341 0.506-0.262 0.297-0.372 0.759-0.332 1.384v0l2.054 32.085c0.04 0.632 0.209 1.079 0.507 1.34 0.297 0.262 0.762 0.372 1.394 0.332zM112.387 6.663v0l-13.312 0.852-1.712-26.735 10.049-0.644c1.351-0.086 2.464-0.017 3.34 0.207 0.876 0.224 1.562 0.561 2.059 1.011 0.49 0.45 0.838 0.985 1.045 1.606 0.206 0.615 0.333 1.285 0.379 2.01v0l0.203 3.174c0.063 0.985-0.052 1.901-0.345 2.747-0.293 0.854-1.139 1.506-2.54 1.957v0c1.357-0.087 2.474-0.018 3.35 0.206 0.876 0.224 1.56 0.578 2.052 1.061 0.499 0.482 0.843 1.065 1.034 1.748 0.191 0.689 0.313 1.446 0.366 2.271v0l0.202 3.164c0.046 0.725 0.009 1.399-0.111 2.021-0.127 0.623-0.4 1.165-0.818 1.625-0.418 0.454-1.049 0.832-1.891 1.133-0.842 0.301-1.959 0.496-3.35 0.586zM107.444-19.365v0l-9.56 0.613 0.795 12.424 9.561-0.612c1.351-0.086 2.414-0.278 3.19-0.575 0.783-0.297 1.367-0.665 1.753-1.104 0.386-0.439 0.618-0.935 0.696-1.488 0.078-0.553 0.098-1.125 0.06-1.717v0l-0.203-3.174c-0.084-1.317-0.535-2.414-1.353-3.29-0.818-0.876-2.464-1.235-4.939-1.077zM103.598-10.27l-0.343-5.349 4.211-0.27c0.625-0.04 1.108 0.096 1.45 0.408 0.334 0.306 0.521 0.788 0.563 1.447v0l0.089 1.387c0.043 0.665-0.082 1.171-0.374 1.517-0.298 0.353-0.76 0.55-1.385 0.59v0zM111.585-6.653v0l-12.874 0.824 0.821 12.824 12.824-0.821c2.482-0.159 4.076-0.668 4.782-1.529 0.707-0.854 1.017-1.959 0.93-3.316v0l-0.202-3.164c-0.095-1.49-0.547-2.704-1.356-3.641-0.802-0.944-2.444-1.337-4.925-1.177zM104.46 3.192l-0.374-5.838 6.437-0.412c0.632-0.04 1.114 0.086 1.447 0.378 0.333 0.293 0.52 0.772 0.563 1.437v0l0.123 1.926c0.042 0.659-0.082 1.164-0.374 1.517-0.292 0.346-0.754 0.539-1.386 0.58v0zM145.227 15.42v0l-8.033 0.34c-0.826 0.035-1.42-0.12-1.781-0.465-0.362-0.352-0.56-0.924-0.593-1.717v0l-0.262-6.194-7.907-9.695c-0.837-1.026-1.406-1.929-1.706-2.71-0.3-0.781-0.484-1.981-0.553-3.6v0l-0.403-9.521c-0.018-0.433 0.026-0.798 0.134-1.097 0.101-0.305 0.263-0.562 0.488-0.771v0l6.166-5.666c0.161-0.14 0.379-0.26 0.656-0.358 0.276-0.092 0.581-0.145 0.914-0.159v0l7.633-0.323c0.793-0.034 1.376 0.122 1.751 0.467 0.382 0.351 0.59 0.923 0.623 1.715v0l0.344 8.133c0.013 0.3 0.042 0.595 0.088 0.887 0.046 0.298 0.159 0.607 0.339 0.926v0l0.626 0.824-0.229-5.405c-0.018-0.433 0.026-0.798 0.134-1.096 0.101-0.305 0.263-0.562 0.488-0.772v0l6.166-5.665c0.154-0.14 0.373-0.259 0.655-0.358 0.276-0.092 0.578-0.145 0.904-0.159v0l7.394-0.313c0.793-0.034 1.376 0.122 1.751 0.467 0.382 0.351 0.59 0.923 0.623 1.715v0l0.403 9.522c0.068 1.619-0.014 2.83-0.247 3.633-0.226 0.804-0.713 1.752-1.461 2.845v0l-7.018 10.375 0.26 6.145c0.018 0.433-0.023 0.802-0.123 1.106-0.101 0.298-0.264 0.552-0.488 0.761v0l-6.218 5.628c-0.128 0.139-0.329 0.264-0.605 0.376-0.276 0.105-0.58 0.165-0.913 0.179zM143.339 9.594l8.033-0.339c0.626-0.026 1.073-0.186 1.341-0.477 0.275-0.292 0.398-0.754 0.372-1.387v0l-0.267-6.295 7.102-10.529c0.683-1.056 1.141-1.97 1.375-2.741 0.228-0.77 0.309-1.915 0.245-3.433v0l-0.403-9.522c-0.026-0.626-0.186-1.073-0.477-1.341-0.292-0.268-0.75-0.389-1.376-0.362v0l-7.394 0.313c-0.626 0.026-1.073 0.186-1.341 0.477-0.268 0.292-0.389 0.75-0.362 1.376v0l0.344 8.133c0.014 0.326 0.012 0.673-0.006 1.041-0.018 0.368-0.136 0.72-0.355 1.056v0l-2.127 3.674c-0.154 0.3-0.318 0.521-0.493 0.661-0.174 0.141-0.395 0.217-0.661 0.228v0l-0.499 0.021c-0.26 0.011-0.486-0.046-0.678-0.171-0.185-0.126-0.368-0.331-0.547-0.618v0l-2.429-3.48c-0.247-0.317-0.395-0.657-0.443-1.022-0.049-0.365-0.08-0.711-0.094-1.037v0l-0.344-8.133c-0.026-0.626-0.186-1.073-0.477-1.341-0.292-0.268-0.75-0.389-1.377-0.362v0l-7.633 0.323c-0.633 0.027-1.083 0.186-1.351 0.477-0.268 0.292-0.389 0.75-0.362 1.377v0l0.402 9.521c0.064 1.519 0.236 2.652 0.515 3.402 0.279 0.749 0.819 1.62 1.622 2.613v0l8.023 9.84 0.268 6.344c0.027 0.633 0.186 1.083 0.478 1.351 0.292 0.268 0.75 0.389 1.376 0.363zM147.408-3.539v0l-0.35 0.015 0.358 8.472-0.499 0.021-0.359-8.472-0.489 0.02c-0.726 0.031-1.386-0.108-1.98-0.416-0.593-0.302-1.172-0.805-1.735-1.508v0l-5.089-6.491c-0.381-0.484-0.618-1.055-0.713-1.711-0.095-0.657-0.157-1.348-0.188-2.074v0l-0.241-5.705 0.49-0.021 0.241 5.705c0.029 0.693 0.09 1.344 0.183 1.954 0.092 0.603 0.315 1.148 0.669 1.633v0l5.089 6.491c0.461 0.641 0.977 1.083 1.548 1.326 0.57 0.236 1.139 0.342 1.705 0.318v0l1.338-0.057c0.626-0.026 1.19-0.19 1.691-0.492 0.501-0.301 0.985-0.776 1.451-1.422v0l4.673-6.904c0.315-0.447 0.492-0.992 0.531-1.634 0.039-0.649 0.044-1.32 0.015-2.012v0l-0.241-5.705 0.489-0.021 0.242 5.705c0.031 0.726 0.036 1.413 0.017 2.061-0.02 0.641-0.218 1.237-0.595 1.787v0l-4.673 6.904c-0.502 0.749-1.033 1.298-1.591 1.648-0.565 0.358-1.228 0.552-1.987 0.585zM175.131-2.754v0l-7.147 0.183c-1.053 0.027-1.74-0.105-2.061-0.398-0.328-0.292-0.522-0.98-0.583-2.065v0l-0.761-14.476c-0.05-0.632-0.038-1.106 0.033-1.421 0.079-0.315 0.229-0.576 0.451-0.782v0l6.309-5.563c0.163-0.138 0.401-0.244 0.712-0.319 0.312-0.075 0.701-0.118 1.167-0.13v0l8.188-0.209c1.053-0.027 1.733 0.106 2.041 0.398 0.307 0.286 0.458 0.975 0.453 2.069v0l-0.027 14.595c-0.019 0.561-0.074 0.999-0.166 1.315-0.092 0.316-0.232 0.576-0.42 0.781v0l-6.271 5.522c-0.19 0.138-0.434 0.251-0.731 0.339-0.298 0.094-0.693 0.148-1.187 0.161zM174.24-8.644l7.138-0.182c0.86-0.022 1.41-0.159 1.65-0.413 0.24-0.253 0.366-0.81 0.377-1.67v0l0.028-14.545c0.011-0.861-0.11-1.411-0.363-1.652-0.253-0.24-0.793-0.35-1.619-0.328v0l-8.187 0.209c-0.86 0.022-1.41 0.159-1.65 0.413-0.24 0.253-0.336 0.809-0.287 1.668v0l0.772 14.525c0.055 0.859 0.209 1.408 0.462 1.648 0.26 0.24 0.819 0.349 1.679 0.327zM177.445-13.187l-0.248-9.677 0.5-0.013 0.248 9.677zM205.337 13.921l-15.68 0.143c-0.793 0.007-1.372-0.168-1.734-0.524-0.37-0.363-0.559-0.942-0.566-1.735v0l-0.053-5.8c-0.004-0.433 0.049-0.797 0.16-1.091 0.117-0.301 0.288-0.553 0.513-0.755v0l4.932-4.215c-1.758-0.511-3.15-1.398-4.175-2.662-1.018-1.264-1.538-3.086-1.56-5.466v0l-0.047-5.21c-0.014-1.493 0.221-2.819 0.704-3.976 0.489-1.165 1.194-2.148 2.113-2.95v0l6.4-5.468c0.887-0.735 1.988-1.315 3.305-1.741 1.323-0.425 2.828-0.646 4.514-0.661v0l13.889-0.126c0.793-0.007 1.375 0.167 1.745 0.524 0.363 0.363 0.549 0.942 0.556 1.735v0l0.054 5.909c0.004 0.427-0.049 0.79-0.16 1.092-0.111 0.294-0.282 0.543-0.514 0.745v0l-4.435 3.76c2.091 0.448 3.779 1.302 5.063 2.564 1.285 1.262 1.94 3.232 1.964 5.912v0l0.048 5.21c0.014 1.487-0.224 2.812-0.714 3.977-0.483 1.158-1.201 2.138-2.153 2.94v0l-6.351 5.418c-0.92 0.768-2.038 1.365-3.354 1.79-1.323 0.425-2.811 0.646-4.464 0.661zM196.003 8.106l15.68-0.143c3.18-0.029 5.68-0.805 7.499-2.328 1.82-1.523 2.716-3.688 2.691-6.495v0l-0.048-5.21c-0.025-2.78-0.753-4.76-2.184-5.94-1.431-1.174-3.308-1.917-5.631-2.229v0l-7.398-0.923c-0.434-0.029-0.765-0.193-0.995-0.491-0.236-0.291-0.356-0.653-0.36-1.086v0c-0.004-0.427 0.11-0.784 0.34-1.073 0.224-0.282 0.553-0.425 0.987-0.429v0l11.559-0.106c0.627-0.006 1.082-0.15 1.366-0.432 0.277-0.283 0.413-0.737 0.408-1.364v0l-0.054-5.91c-0.006-0.627-0.15-1.079-0.433-1.356-0.289-0.277-0.747-0.413-1.373-0.407v0l-13.89 0.126c-3.213 0.029-5.72 0.802-7.519 2.319-1.806 1.523-2.696 3.691-2.671 6.504v0l0.048 5.21c0.025 2.78 0.747 4.757 2.164 5.931 1.411 1.181 3.278 1.924 5.601 2.229v0l7.449 0.982c0.434 0.029 0.758 0.173 0.974 0.431 0.216 0.265 0.326 0.677 0.331 1.237v0c0.004 0.4-0.1 0.741-0.311 1.023-0.211 0.282-0.533 0.425-0.966 0.429v0l-13.349 0.121c-0.627 0.006-1.079 0.15-1.356 0.433-0.277 0.289-0.413 0.747-0.408 1.374v0l0.053 5.799c0.006 0.633 0.15 1.089 0.433 1.367 0.283 0.277 0.737 0.413 1.363 0.407zM204.408-23.232l11.009-0.1 0.005 0.5-11.009 0.1c-1.393 0.013-2.5 0.403-3.32 1.17-0.82 0.768-1.224 1.731-1.214 2.892v0l0.037 4.059c0.011 1.16 0.251 1.971 0.723 2.434 0.464 0.456 1.077 0.747 1.838 0.873v0l10.489 2.035c0.995 0.191 1.819 0.613 2.471 1.267 0.646 0.654 0.977 1.845 0.993 3.571v0l0.026 2.87c0.013 1.46-0.469 2.664-1.447 3.614-0.985 0.949-2.32 1.431-4.007 1.446v0l-12.36 0.113-0.004-0.49 12.359-0.113c1.52-0.014 2.729-0.448 3.629-1.303 0.906-0.848 1.352-1.936 1.34-3.262v0l-0.026-2.87c-0.014-1.56-0.297-2.627-0.849-3.203-0.552-0.568-1.292-0.948-2.221-1.139v0l-10.489-2.035c-0.861-0.159-1.568-0.492-2.119-1.001-0.551-0.508-0.833-1.442-0.846-2.802v0l-0.037-4.06c-0.012-1.327 0.441-2.414 1.361-3.262 0.919-0.855 2.142-1.29 3.668-1.304zM253.763 3.811l-0.49-0.01 0.553-26.785 0.49 0.01-0.271 13.148 19.056 0.393 0.271-13.147 0.49 0.01-0.553 26.784-0.49-0.01 0.271-13.137-19.056-0.394zM249.612 8.196l7.688 0.159c0.627 0.013 1.083-0.118 1.369-0.392 0.286-0.274 0.435-0.728 0.448-1.361v0l0.227-11.008 8.288 0.171-0.227 11.008c-0.013 0.633 0.117 1.093 0.392 1.378 0.274 0.286 0.728 0.435 1.361 0.448v0l7.688 0.159c0.627 0.013 1.083-0.118 1.369-0.392 0.286-0.274 0.435-0.728 0.448-1.361v0l0.663-32.143c0.013-0.627-0.118-1.083-0.392-1.369-0.274-0.286-0.725-0.435-1.351-0.448v0l-7.688-0.158c-0.633-0.013-1.093 0.117-1.379 0.392-0.286 0.274-0.435 0.725-0.448 1.351v0l-0.222 10.767-8.288-0.171 0.222-10.767c0.013-0.627-0.118-1.083-0.392-1.369-0.274-0.286-0.725-0.435-1.351-0.448v0l-7.688-0.158c-0.633-0.013-1.093 0.117-1.379 0.391-0.286 0.274-0.435 0.725-0.448 1.351v0l-0.663 32.143c-0.013 0.633 0.117 1.093 0.392 1.379 0.274 0.286 0.728 0.435 1.361 0.448zM258.879 8.437v0l-6.559 5.226c-0.129 0.131-0.338 0.243-0.627 0.337-0.282 0.088-0.586 0.128-0.913 0.121v0l-7.688-0.158c-0.8-0.017-1.376-0.208-1.729-0.576-0.359-0.374-0.53-0.958-0.514-1.751v0l0.663-32.143c0.009-0.433 0.076-0.795 0.203-1.086 0.119-0.298 0.298-0.544 0.535-0.739v0l6.51-5.267c0.169-0.13 0.395-0.235 0.677-0.316 0.282-0.074 0.589-0.108 0.922-0.101v0l7.688 0.158c0.793 0.016 1.366 0.208 1.719 0.576 0.359 0.374 0.53 0.958 0.514 1.751v0l-0.212 10.268 0.89 0.018 0.1-4.859c0.009-0.433 0.076-0.795 0.203-1.086 0.119-0.298 0.298-0.544 0.535-0.739v0l6.51-5.267c0.169-0.13 0.395-0.235 0.677-0.316 0.282-0.074 0.589-0.108 0.922-0.101v0l7.688 0.159c0.793 0.016 1.366 0.208 1.719 0.575 0.359 0.374 0.53 0.958 0.514 1.751v0l-0.663 32.143c-0.009 0.433-0.073 0.799-0.193 1.097-0.126 0.291-0.308 0.534-0.545 0.728v0l-6.559 5.226c-0.129 0.131-0.338 0.243-0.627 0.337-0.282 0.088-0.586 0.128-0.913 0.122v0l-7.699-0.159c-0.793-0.016-1.366-0.208-1.718-0.576-0.359-0.374-0.53-0.958-0.514-1.751v0l0.217-10.518-0.89-0.018-0.105 5.109c-0.009 0.433-0.073 0.799-0.193 1.096-0.126 0.291-0.308 0.534-0.545 0.729zM317.784 8.661l-6.628 5.075c-1.202 0.942-2.858 1.64-4.967 2.095-2.102 0.455-4.791 0.611-8.068 0.468v0c-3.237-0.142-5.873-0.597-7.908-1.367-2.035-0.77-3.614-1.74-4.737-2.91-1.123-1.177-1.876-2.501-2.258-3.973-0.382-1.478-0.54-2.993-0.472-4.545v0l0.674-15.415c0.066-1.519 0.341-2.921 0.825-4.208 0.49-1.286 1.315-2.368 2.474-3.245v0l6.678-5.073c1.202-0.942 2.848-1.64 4.937-2.096 2.089-0.456 4.788-0.611 8.098-0.466v0c3.237 0.142 5.876 0.524 7.917 1.147 2.042 0.617 3.628 1.423 4.759 2.42 1.131 0.99 1.885 2.148 2.261 3.472 0.369 1.324 0.52 2.762 0.451 4.314v0l-0.739 16.904c-0.066 1.519-0.341 2.915-0.824 4.188-0.489 1.266-1.313 2.338-2.473 3.215zM320.591 1.237v0l0.74-16.904c0.066-1.519-0.096-2.907-0.489-4.166-0.392-1.258-1.138-2.359-2.237-3.301-1.107-0.943-2.648-1.704-4.625-2.284-1.976-0.587-4.5-0.948-7.57-1.082v0c-3.077-0.135-5.636 0.004-7.675 0.415-2.033 0.405-3.638 1.029-4.817 1.871-1.185 0.842-2.027 1.873-2.527 3.093-0.5 1.219-0.784 2.588-0.851 4.106v0l-0.739 16.904c-0.066 1.519 0.096 2.91 0.488 4.176 0.392 1.258 1.142 2.349 2.249 3.271 1.1 0.929 2.646 1.684 4.635 2.265 1.996 0.581 4.533 0.939 7.61 1.074v0c3.07 0.134 5.615-0.001 7.636-0.407 2.02-0.405 3.622-1.023 4.805-1.852 1.177-0.823 2.016-1.844 2.516-3.063 0.501-1.226 0.784-2.598 0.851-4.116zM315.876-14.765l-0.64 14.626c-0.087 1.985-0.87 3.565-2.349 4.742-1.473 1.177-4.141 1.681-8.004 1.512v0c-3.87-0.169-6.47-0.904-7.801-2.204-1.338-1.3-1.963-2.942-1.877-4.926v0l0.64-14.626c0.087-1.978 0.853-3.556 2.299-4.734 1.44-1.178 4.094-1.683 7.964-1.514v0c3.863 0.169 6.477 0.904 7.841 2.205 1.371 1.301 2.013 2.941 1.927 4.919zM296.345-15.62l-0.64 14.626c-0.081 1.852 0.513 3.376 1.782 4.573 1.276 1.197 3.748 1.876 7.418 2.036v0c3.663 0.16 6.199-0.299 7.607-1.379 1.402-1.08 2.143-2.545 2.225-4.397v0l0.64-14.626c0.081-1.845-0.53-3.37-1.832-4.574-1.309-1.198-3.795-1.878-7.458-2.038v0c-3.67-0.161-6.192 0.3-7.568 1.38-1.369 1.088-2.094 2.554-2.174 4.399zM301.138-1.396v0l0.583-13.338c0.027-0.626 0.297-1.151 0.81-1.576 0.519-0.424 1.671-0.598 3.456-0.519v0c1.778 0.078 2.907 0.351 3.387 0.819 0.473 0.468 0.696 1.015 0.669 1.64v0l-0.583 13.338c-0.029 0.659-0.299 1.201-0.812 1.626-0.519 0.424-1.668 0.598-3.446 0.52v0c-1.785-0.078-2.917-0.351-3.398-0.82-0.473-0.468-0.696-1.031-0.666-1.69zM302.037-10.746l-0.41 9.371c-0.014 0.326 0.04 0.616 0.162 0.868 0.122 0.259 0.363 0.476 0.723 0.652v0l0.411-9.411c0.015-0.333-0.039-0.626-0.161-0.878-0.122-0.252-0.364-0.453-0.725-0.602zM339.165 18.526v0c-3.2-0.212-5.808-0.726-7.825-1.541-2.017-0.815-3.567-1.82-4.651-3.015-1.083-1.201-1.799-2.541-2.148-4.021-0.349-1.486-0.472-3.004-0.37-4.554v0l1.526-23.019c0.029-0.432 0.113-0.791 0.252-1.076 0.133-0.292 0.322-0.53 0.568-0.714v0l6.744-4.965c0.175-0.122 0.405-0.217 0.69-0.285 0.285-0.061 0.593-0.081 0.926-0.059v0l7.773 0.516c0.792 0.052 1.355 0.27 1.69 0.653 0.342 0.39 0.486 0.981 0.434 1.772v0l-1.497 22.581c-0.019 0.293 0.012 0.569 0.095 0.828 0.083 0.253 0.284 0.456 0.601 0.611v0l1.231-18.569c0.029-0.432 0.103-0.792 0.222-1.078 0.12-0.293 0.285-0.516 0.496-0.669v0l0.053-0.046 6.793-4.962c0.175-0.122 0.395-0.218 0.66-0.287 0.271-0.062 0.59-0.081 0.956-0.056v0l7.524 0.498c0.792 0.052 1.358 0.27 1.7 0.654 0.335 0.39 0.476 0.98 0.424 1.772v0l-1.625 24.506c-0.101 1.517-0.406 2.906-0.918 4.169-0.517 1.255-1.369 2.308-2.554 3.158v0l-6.791 4.921c-1.217 0.915-2.867 1.577-4.952 1.987-2.078 0.41-4.754 0.507-8.027 0.29zM361.918 3.969v0l1.625-24.506c0.041-0.625-0.072-1.087-0.339-1.386-0.261-0.298-0.704-0.468-1.33-0.509v0l-7.523-0.499c-0.632-0.042-1.097 0.068-1.395 0.329-0.298 0.261-0.468 0.704-0.509 1.329v0l-1.497 22.581c-0.044 0.659-0.326 1.194-0.848 1.607-0.528 0.413-1.667 0.561-3.417 0.445v0c-1.716-0.114-2.806-0.41-3.268-0.888-0.469-0.479-0.682-1.047-0.639-1.706v0l1.497-22.581c0.041-0.625-0.068-1.087-0.329-1.384-0.261-0.298-0.704-0.468-1.329-0.51v0l-7.773-0.515c-0.625-0.041-1.09 0.068-1.395 0.329-0.298 0.261-0.468 0.704-0.509 1.329v0l-1.625 24.506c-0.101 1.517 0.031 2.912 0.394 4.185 0.364 1.267 1.085 2.374 2.165 3.321 1.079 0.953 2.594 1.742 4.544 2.366 1.95 0.624 4.458 1.037 7.524 1.24v0c3.073 0.204 5.617 0.125 7.633-0.236 2.008-0.361 3.61-0.943 4.806-1.746 1.202-0.796 2.067-1.797 2.594-3.004 0.528-1.214 0.843-2.58 0.943-4.097zM336.842 1.114l1.369-20.645 0.499 0.033-1.369 20.645c-0.123 1.849 0.43 3.386 1.659 4.61 1.228 1.224 3.672 1.957 7.33 2.199v0c3.665 0.243 6.198-0.16 7.597-1.21 1.393-1.05 2.15-2.5 2.273-4.349v0l1.368-20.644 0.499 0.033-1.369 20.644c-0.131 1.982-0.933 3.546-2.405 4.691-1.466 1.146-4.131 1.59-7.996 1.334v0c-3.858-0.256-6.431-1.048-7.72-2.375-1.288-1.328-1.867-2.983-1.735-4.966zM381.96 21.074l-15.619-1.381c-0.79-0.07-1.349-0.3-1.676-0.69-0.333-0.398-0.465-0.991-0.395-1.781v0l0.511-5.778c0.038-0.432 0.127-0.789 0.265-1.071 0.146-0.288 0.341-0.522 0.584-0.701v0l5.318-3.716c-1.7-0.679-2.999-1.697-3.896-3.055-0.891-1.357-1.231-3.221-1.022-5.592v0l0.459-5.19c0.131-1.488 0.494-2.784 1.087-3.889 0.6-1.111 1.397-2.022 2.389-2.73v0l6.902-4.821c0.954-0.645 2.106-1.116 3.457-1.411 1.358-0.295 2.877-0.368 4.557-0.22v0l13.836 1.223c0.79 0.07 1.352 0.3 1.686 0.691 0.326 0.397 0.455 0.991 0.385 1.781v0l-0.521 5.887c-0.038 0.425-0.126 0.782-0.265 1.071-0.139 0.282-0.333 0.513-0.583 0.691v0l-4.78 3.312c2.037 0.649 3.634 1.663 4.79 3.044 1.156 1.381 1.616 3.406 1.381 6.075v0l-0.459 5.19c-0.131 1.481-0.496 2.777-1.097 3.888-0.593 1.105-1.403 2.011-2.428 2.717v0l-6.847 4.776c-0.99 0.675-2.161 1.161-3.512 1.456-1.358 0.295-2.86 0.37-4.507 0.224zM373.235 14.38l15.619 1.38c3.168 0.28 5.731-0.25 7.69-1.589 1.959-1.339 3.062-3.407 3.309-6.202v0l0.459-5.19c0.245-2.769-0.288-4.811-1.597-6.125-1.31-1.307-3.106-2.229-5.388-2.765v0l-7.274-1.636c-0.429-0.071-0.743-0.266-0.942-0.586-0.207-0.313-0.291-0.685-0.253-1.116v0c0.038-0.425 0.185-0.77 0.443-1.035 0.25-0.259 0.591-0.369 1.023-0.332v0l11.516 1.018c0.624 0.055 1.091-0.044 1.401-0.297 0.304-0.254 0.483-0.694 0.538-1.318v0l0.521-5.887c0.055-0.624-0.044-1.088-0.299-1.392-0.261-0.304-0.703-0.484-1.328-0.539v0l-13.836-1.223c-3.201-0.283-5.77 0.243-7.709 1.578-1.946 1.341-3.042 3.412-3.29 6.214v0l-0.458 5.19c-0.245 2.769 0.281 4.807 1.578 6.112 1.29 1.312 3.075 2.233 5.357 2.763v0l7.319 1.701c0.429 0.071 0.738 0.246 0.927 0.524 0.189 0.284 0.259 0.706 0.21 1.263v0c-0.035 0.398-0.171 0.728-0.409 0.988-0.237 0.26-0.572 0.371-1.003 0.333v0l-13.298-1.176c-0.624-0.055-1.088 0.044-1.392 0.299-0.304 0.261-0.484 0.703-0.539 1.328v0l-0.51 5.777c-0.056 0.631 0.043 1.098 0.298 1.402 0.254 0.304 0.694 0.483 1.317 0.538zM384.644-15.994l10.967 0.97-0.044 0.498-10.967-0.97c-1.388-0.123-2.527 0.158-3.418 0.843-0.89 0.684-1.387 1.604-1.488 2.759v0l-0.358 4.045c-0.102 1.155 0.059 1.986 0.483 2.492 0.418 0.499 0.999 0.848 1.744 1.048v0l10.242 3.043c0.972 0.287 1.751 0.787 2.337 1.502 0.579 0.714 0.793 1.931 0.641 3.65v0l-0.253 2.859c-0.129 1.454-0.726 2.606-1.791 3.456-1.072 0.849-2.448 1.199-4.129 1.05v0l-12.312-1.088 0.044-0.488 12.312 1.088c1.514 0.134 2.76-0.181 3.737-0.944 0.984-0.756 1.534-1.795 1.651-3.117v0l0.253-2.859c0.137-1.554-0.041-2.644-0.534-3.27-0.494-0.619-1.194-1.069-2.1-1.35v0l-10.242-3.043c-0.842-0.242-1.513-0.642-2.012-1.202-0.499-0.559-0.689-1.517-0.569-2.871v0l0.358-4.045c0.117-1.322 0.674-2.36 1.67-3.115 0.998-0.762 2.257-1.075 3.778-0.941zM426.648 25.589v0l-22.886-2.482c-0.795-0.086-1.353-0.328-1.672-0.724-0.325-0.404-0.445-1-0.359-1.79v0l3.466-31.962c0.047-0.431 0.146-0.786 0.297-1.064 0.145-0.286 0.344-0.516 0.597-0.69v0l6.945-4.679c0.18-0.115 0.414-0.2 0.702-0.255 0.287-0.049 0.596-0.056 0.928-0.02v0l22.885 2.481c0.789 0.086 1.346 0.327 1.672 0.725 0.318 0.403 0.435 0.999 0.349 1.788v0l-0.626 5.776c-0.046 0.424-0.142 0.779-0.287 1.065-0.151 0.279-0.35 0.505-0.596 0.68v0l-4.626 3.049c0.314 0.195 0.526 0.466 0.636 0.813 0.11 0.347 0.136 0.783 0.08 1.306v0l-0.573 5.28c-0.046 0.424-0.142 0.779-0.286 1.065-0.152 0.285-0.351 0.512-0.597 0.679v0l-4.796 3.232 6.81 0.739c0.789 0.086 1.346 0.327 1.671 0.724 0.318 0.403 0.435 0.999 0.35 1.788v0l-0.626 5.766c-0.047 0.431-0.143 0.789-0.287 1.076-0.151 0.279-0.35 0.505-0.597 0.679v0l-6.99 4.634c-0.147 0.118-0.365 0.212-0.655 0.281-0.295 0.062-0.605 0.075-0.929 0.04zM410.761 17.931l22.886 2.482c0.623 0.068 1.089-0.023 1.397-0.271 0.309-0.248 0.497-0.687 0.565-1.316v0l0.625-5.767c0.068-0.623-0.022-1.092-0.269-1.407-0.248-0.309-0.684-0.497-1.307-0.564v0l-13.62-1.477 0.459-4.235 9.624 1.043c0.623 0.068 1.089-0.026 1.398-0.281 0.315-0.247 0.507-0.683 0.574-1.305v0l0.573-5.279c0.068-0.623-0.026-1.089-0.281-1.399-0.247-0.315-0.683-0.507-1.306-0.574v0l-9.624-1.044 0.412-3.797 13.62 1.477c0.623 0.068 1.089-0.023 1.398-0.271 0.309-0.248 0.497-0.684 0.564-1.307v0l0.626-5.776c0.068-0.623-0.023-1.089-0.271-1.397-0.248-0.309-0.684-0.497-1.306-0.565v0l-22.886-2.481c-0.63-0.068-1.099 0.022-1.408 0.269-0.309 0.248-0.497 0.684-0.564 1.307v0l-3.466 31.963c-0.068 0.63 0.022 1.099 0.27 1.407 0.248 0.309 0.687 0.497 1.317 0.565zM415.381 13.443l16.136 1.75-0.053 0.487-16.622-1.802 2.888-26.634 16.622 1.802-0.054 0.498-16.135-1.75-1.342 12.377 12.139 1.317-0.054 0.497-12.139-1.317z" opacity="1" transform="matrix(1,0,0,1,0,0)" fill="#000000" class="wordmark-text-0" data-fill-palette-color="primary" id="text-0"></path></svg></g></svg></g><g transform="matrix(1,0,0,1,0,53.29596412904933)"><svg viewBox="0 0 395.52 24.51447911332009" height="24.51447911332009" width="395.52"><g transform="matrix(1,0,0,1,0,0)"><svg width="395.52" viewBox="0 -35.39 751.65 46.59" height="24.51447911332009" data-palette-color="#000000"><path d="M14.99-12.89L14.99 0 11.07 0 11.07-12.71 0-33.27 4.22-33.27 13.04-16.63 21.92-33.27 26.09-33.27 14.99-12.89ZM41.9-21.99Q44.97-25.38 50.28-25.38 55.58-25.38 58.67-21.9 61.75-18.43 61.75-12.42 61.75-6.42 58.67-2.96L58.67-2.96Q55.58 0.46 50.2 0.46L50.2 0.46Q45.12 0.51 41.93-3.06 38.75-6.62 38.82-12.49L38.82-12.49Q38.82-18.6 41.9-21.99ZM50.23-22.17L50.23-22.17Q42.74-22.17 42.74-12.49L42.74-12.49Q42.74-7.71 44.65-5.21 46.56-2.7 50.28-2.7 53.99-2.7 55.91-5.19 57.83-7.68 57.83-12.47 57.83-17.26 55.91-19.72 53.99-22.17 50.23-22.17ZM80.56-8.62L80.56-24.92 84.37-24.92 84.37-8.75Q84.37-5.69 85.78-4.2 87.18-2.7 90.11-2.7L90.11-2.7Q94.03-2.7 95.82-4.85 97.62-7 97.62-11.83L97.62-11.83 97.62-24.92 101.41-24.92 101.41 0 98.3 0 97.75-3.34 97.54-3.34Q96.38-1.52 94.33-0.53 92.29 0.46 89.63 0.46L89.63 0.46Q85.03 0.46 82.79-1.73 80.56-3.92 80.56-8.62L80.56-8.62ZM133.23-25.38L133.23-25.38Q134.95-25.38 136.22-25.13L136.22-25.13 135.71-21.61Q134.22-21.94 132.98-21.94L132.98-21.94Q129.95-21.94 127.8-19.49 125.65-17.04 125.65-13.37L125.65-13.37 125.65 0 121.86 0 121.86-24.92 124.99-24.92 125.42-20.32 125.6-20.32Q126.99-22.78 128.95-24.08 130.91-25.38 133.23-25.38ZM180.92-21.99Q183.99-25.38 189.3-25.38 194.61-25.38 197.69-21.9 200.77-18.43 200.77-12.42 200.77-6.42 197.69-2.96L197.69-2.96Q194.61 0.46 189.22 0.46L189.22 0.46Q184.14 0.51 180.95-3.06 177.77-6.62 177.85-12.49L177.85-12.49Q177.85-18.6 180.92-21.99ZM189.25-22.17L189.25-22.17Q181.76-22.17 181.76-12.49L181.76-12.49Q181.76-7.71 183.67-5.21 185.58-2.7 189.3-2.7 193.01-2.7 194.93-5.19 196.85-7.68 196.85-12.47 196.85-17.26 194.93-19.72 193.01-22.17 189.25-22.17ZM240.68-16.25L240.68 0 236.89 0 236.89-16.13Q236.89-19.21 235.5-20.69 234.11-22.17 231.18-22.17L231.18-22.17Q227.26-22.17 225.44-20.06 223.62-17.95 223.62-13.07L223.62-13.07 223.62 0 219.83 0 219.83-24.92 222.91-24.92 223.52-21.51 223.7-21.51Q224.86-23.33 226.96-24.36 229.06-25.38 231.64-25.38L231.64-25.38Q236.19-25.38 238.44-23.18 240.68-20.98 240.68-16.25L240.68-16.25ZM271.42 0.46L271.42 0.46Q265.88 0.46 262.67-2.91L262.67-2.91Q259.49-6.27 259.49-12.29 259.49-18.3 262.45-21.84L262.45-21.84Q265.46-25.38 270.3-25.38 275.14-25.38 277.87-22.3 280.6-19.21 280.6-14.18L280.6-14.18 280.6-11.78 263.41-11.78Q263.53-7.41 265.63-5.12 267.73-2.83 271.69-2.83 275.64-2.83 279.51-4.52L279.51-4.52 279.51-1.16Q277.56-0.3 275.74 0.08 273.92 0.46 271.42 0.46ZM263.51-14.86L276.55-14.86Q276.55-18.43 274.96-20.32 273.37-22.22 270.4-22.22 267.43-22.22 265.62-20.27 263.81-18.33 263.51-14.86L263.51-14.86ZM341.49-6.8L341.49-6.8Q341.49-3.31 338.9-1.43 336.31 0.46 331.48 0.46 326.65 0.46 323.87-1.11L323.87-1.11 323.87-4.63Q327.76-2.65 331.7-2.65L331.7-2.65Q337.85-2.65 337.85-6.47L337.85-6.47Q337.85-7.94 336.56-8.99 335.27-10.04 331.76-11.36 328.24-12.69 326.7-13.68L326.7-13.68Q323.79-15.65 323.79-18.76 323.79-21.87 326.27-23.62 328.75-25.38 332.96-25.38 337.16-25.38 340.96-23.76L340.96-23.76 339.62-20.68Q335.9-22.22 333.03-22.22 330.16-22.22 328.79-21.4 327.41-20.58 327.41-19.06L327.41-19.06Q327.41-18.1 327.9-17.38 328.39-16.66 329.53-16.01 330.67-15.37 333.93-14.18L333.93-14.18Q338.38-12.54 339.93-10.91 341.49-9.28 341.49-6.8ZM364.13-21.99L364.13-7.33Q364.13-5.08 365.18-3.87 366.23-2.65 368.06-2.65 369.9-2.65 371.54-3.11L371.54-3.11 371.54-0.23Q370.96 0.05 369.71 0.25 368.46 0.46 367.57 0.46L367.57 0.46Q360.34 0.46 360.34-7.15L360.34-7.15 360.34-21.99 356.78-21.99 356.78-23.81 360.34-25.38 361.94-30.71 364.13-30.71 364.13-24.92 371.36-24.92 371.36-21.99 364.13-21.99ZM390.66-21.99Q393.73-25.38 399.04-25.38 404.35-25.38 407.43-21.9 410.52-18.43 410.52-12.42 410.52-6.42 407.43-2.96L407.43-2.96Q404.35 0.46 398.97 0.46L398.97 0.46Q393.88 0.51 390.7-3.06 387.51-6.62 387.59-12.49L387.59-12.49Q387.59-18.6 390.66-21.99ZM398.99-22.17L398.99-22.17Q391.51-22.17 391.51-12.49L391.51-12.49Q391.51-7.71 393.42-5.21 395.33-2.7 399.04-2.7 402.76-2.7 404.68-5.19 406.6-7.68 406.6-12.47 406.6-17.26 404.68-19.72 402.76-22.17 398.99-22.17ZM445.79-5.31Q447.62-7.91 447.62-12.54 447.62-17.16 445.8-19.67 443.98-22.17 440.65-22.17L440.65-22.17Q436.85-22.17 435.14-20.07 433.42-17.97 433.37-13.32L433.37-13.32 433.37-12.49Q433.37-7.23 435.11-4.97 436.85-2.7 440.72-2.7L440.72-2.7Q443.96-2.7 445.79-5.31ZM448.84-21.99Q451.54-18.6 451.54-12.46 451.54-6.32 448.8-2.93 446.06 0.46 441.04 0.46 436.02 0.46 433.37-3.21L433.37-3.21 433.09-3.21Q433.37-0.91 433.37 0.94L433.37 0.94 433.37 11.2 429.57 11.2 429.57-24.92 432.66-24.92 433.19-21.51 433.37-21.51Q436.1-25.38 441.11-25.38 446.13-25.38 448.84-21.99ZM512.58-6.8L512.58-6.8Q512.58-3.31 509.99-1.43 507.4 0.46 502.57 0.46 497.75 0.46 494.96-1.11L494.96-1.11 494.96-4.63Q498.86-2.65 502.8-2.65L502.8-2.65Q508.94-2.65 508.94-6.47L508.94-6.47Q508.94-7.94 507.65-8.99 506.37-10.04 502.85-11.36 499.34-12.69 497.8-13.68L497.8-13.68Q494.89-15.65 494.89-18.76 494.89-21.87 497.37-23.62 499.84-25.38 504.05-25.38 508.26-25.38 512.05-23.76L512.05-23.76 510.71-20.68Q507-22.22 504.13-22.22 501.26-22.22 499.88-21.4 498.5-20.58 498.5-19.06L498.5-19.06Q498.5-18.1 499-17.38 499.49-16.66 500.63-16.01 501.76-15.37 505.03-14.18L505.03-14.18Q509.47-12.54 511.03-10.91 512.58-9.28 512.58-6.8ZM532.84-21.99Q535.91-25.38 541.22-25.38 546.53-25.38 549.61-21.9 552.7-18.43 552.7-12.42 552.7-6.42 549.61-2.96L549.61-2.96Q546.53 0.46 541.15 0.46L541.15 0.46Q536.06 0.51 532.88-3.06 529.69-6.62 529.77-12.49L529.77-12.49Q529.77-18.6 532.84-21.99ZM541.17-22.17L541.17-22.17Q533.69-22.17 533.69-12.49L533.69-12.49Q533.69-7.71 535.6-5.21 537.51-2.7 541.22-2.7 544.94-2.7 546.86-5.19 548.78-7.68 548.78-12.47 548.78-17.26 546.86-19.72 544.94-22.17 541.17-22.17ZM571.76-35.39L575.55-35.39 575.55 0 571.76 0 571.76-35.39ZM595.74-8.62L595.74-24.92 599.56-24.92 599.56-8.75Q599.56-5.69 600.96-4.2 602.36-2.7 605.3-2.7L605.3-2.7Q609.22-2.7 611.01-4.85 612.8-7 612.8-11.83L612.8-11.83 612.8-24.92 616.6-24.92 616.6 0 613.49 0 612.93-3.34 612.73-3.34Q611.57-1.52 609.52-0.53 607.47 0.46 604.82 0.46L604.82 0.46Q600.22 0.46 597.98-1.73 595.74-3.92 595.74-8.62L595.74-8.62ZM641.11-21.99L641.11-7.33Q641.11-5.08 642.16-3.87 643.21-2.65 645.04-2.65 646.88-2.65 648.52-3.11L648.52-3.11 648.52-0.23Q647.94 0.05 646.69 0.25 645.44 0.46 644.55 0.46L644.55 0.46Q637.32 0.46 637.32-7.15L637.32-7.15 637.32-21.99 633.76-21.99 633.76-23.81 637.32-25.38 638.91-30.71 641.11-30.71 641.11-24.92 648.34-24.92 648.34-21.99 641.11-21.99ZM669.47-29.82Q668.84-29.17 667.86-29.17 666.87-29.17 666.26-29.82 665.66-30.46 665.66-31.7 665.66-32.94 666.26-33.57 666.87-34.2 667.86-34.2 668.84-34.2 669.47-33.56 670.11-32.91 670.11-31.69 670.11-30.46 669.47-29.82ZM665.96-24.92L669.75-24.92 669.75 0 665.96 0 665.96-24.92ZM691.88-21.99Q694.95-25.38 700.26-25.38 705.57-25.38 708.65-21.9 711.74-18.43 711.74-12.42 711.74-6.42 708.65-2.96L708.65-2.96Q705.57 0.46 700.18 0.46L700.18 0.46Q695.1 0.51 691.92-3.06 688.73-6.62 688.81-12.49L688.81-12.49Q688.81-18.6 691.88-21.99ZM700.21-22.17L700.21-22.17Q692.73-22.17 692.73-12.49L692.73-12.49Q692.73-7.71 694.64-5.21 696.54-2.7 700.26-2.7 703.98-2.7 705.9-5.19 707.82-7.68 707.82-12.47 707.82-17.26 705.9-19.72 703.98-22.17 700.21-22.17ZM751.65-16.25L751.65 0 747.86 0 747.86-16.13Q747.86-19.21 746.47-20.69 745.08-22.17 742.14-22.17L742.14-22.17Q738.23-22.17 736.41-20.06 734.59-17.95 734.59-13.07L734.59-13.07 734.59 0 730.79 0 730.79-24.92 733.88-24.92 734.48-21.51 734.66-21.51Q735.82-23.33 737.92-24.36 740.02-25.38 742.6-25.38L742.6-25.38Q747.15-25.38 749.4-23.18 751.65-20.98 751.65-16.25L751.65-16.25Z" opacity="1" transform="matrix(1,0,0,1,0,0)" fill="#000000" class="slogan-text-1" data-fill-palette-color="secondary" id="text-1"></path></svg></g></svg></g></svg></g></svg></g><g></g></svg></g><defs></defs></svg><rect width="395.52" height="77.81044324236942" fill="none" stroke="none" visibility="hidden"></rect></g></svg></g></svg>